<svg width="40" height="40" viewBox="0 0 40 40" fill="none" xmlns="http://www.w3.org/2000/svg">
<circle cx="20" cy="20" r="18" fill="#0A1A33"/>
<circle cx="20" cy="20" r="17.5" stroke="#CBD4E1" stroke-opacity="0.3"/>
<path d="M26.5312 20.2028C26.5312 19.9576 26.4356 19.7124 26.2647 19.5394L21.7871 14.823C21.5957 14.6211 21.3906 14.5273 21.1787 14.5273C20.6865 14.5273 20.3379 14.8951 20.3379 15.3855C20.3379 15.6451 20.4404 15.8615 20.5977 16.0273L22.1289 17.6572L23.9268 19.3951L22.3819 19.3014H14.3223C13.8027 19.3014 13.4473 19.6692 13.4473 20.2028C13.4473 20.7365 13.8027 21.1043 14.3223 21.1043H22.3819L23.9336 21.0105L22.1289 22.7485L20.5977 24.3783C20.4404 24.537 20.3379 24.7533 20.3379 25.0201C20.3379 25.5033 20.6865 25.8711 21.1787 25.8711C21.3906 25.8711 21.5957 25.7845 21.7803 25.5971L26.2647 20.8663C26.4356 20.6932 26.5312 20.448 26.5312 20.2028Z" fill="white"/>
</svg>
